# xmcd
#
# Track frame offsets: 
#        150
#        23692
#        45765
#        72050
#
# Disc length: 1272 seconds
#
# Revision: 1
# Processed by: cddbd v1.5.2PL0 Copyright (c) Steve Scherf et al.
# Submitted via: ExactAudioCopyFreeDBPlugin 1.0
#
DISCID=2104f604
DTITLE=釘宮理恵 - 『鋼の錬金術師 2003』ハガレン・ソングファイル 第3弾 -アルフォンス・エルリック-
DYEAR=2005
DGENRE=Anime
TTITLE0=アルフォンス・エルリック(CV.釘宮理恵) - あの夢の向こうへ
TTITLE1=アルフォンス・エルリック(CV.釘宮理恵) - ボクハココニイル
TTITLE2=アルフォンス・エルリック(CV.釘宮理恵) - トランス　トゥ　ホムンクルス
TTITLE3=アルフォンス・エルリック(CV.釘宮理恵) - あの夢の向こうへ　(Instrumental)
EXTD=YEAR: 2005
EXTT0=
EXTT1=
EXTT2=
EXTT3=
PLAYORDER=
